<!-- sample rectangle -->
<svg xmlns="http://www.w3.org/2000/svg" width="164" height="27" viewBox="0 0 164 27" fill="none">
								<path d="M58.1 25L53.4 18.2C56.1 17.1 57.7 14.8 57.7 11.6C57.7 6.9 54.2 4 48.6 4H39.5V25H44.3V19.1H48.6H48.8L52.9 25H58.1ZM52.8 11.6C52.8 13.9 51.3 15.3 48.3 15.3H44.3V8H48.3C51.3 8 52.8 9.3 52.8 11.6ZM68.9 25.2C74 25.2 77.7 21.8 77.7 16.9C77.7 12.1 74 8.6 68.9 8.6C63.7 8.6 60 12.1 60 16.9C60 21.8 63.7 25.2 68.9 25.2ZM68.9 21.4C66.5 21.4 64.7 19.7 64.7 16.9C64.7 14.1 66.5 12.5 68.9 12.5C71.2 12.5 73 14.1 73 16.9C73 19.7 71.2 21.4 68.9 21.4ZM95.9 25L89.7 16.7L95.7 8.9H90.7L87.2 13.6L83.7 8.9H78.5L84.5 16.9L78.3 25H83.4L87 20L90.6 25H95.9ZM98.2 25H102.8V2.7H98.2V25ZM113.7 8.7C111.1 8.7 108.5 9.4 106.7 10.6L108.4 13.9C109.6 13 111.4 12.4 113.1 12.4C115.6 12.4 116.8 13.6 116.8 15.6H113.1C108.2 15.6 106.2 17.5 106.2 20.4C106.2 23.2 108.4 25.3 112.2 25.3C114.5 25.3 116.2 24.5 117.1 23V25H121.5V15.8C121.5 10.9 118.6 8.7 113.7 8.7ZM113.3 22.1C111.7 22.1 110.7 21.4 110.7 20.2C110.7 19.1 111.4 18.3 113.6 18.3H116.8V19.9C116.3 21.4 114.9 22.1 113.3 22.1ZM135.5 8.7C133.3 8.7 131.4 9.4 130.2 10.8V8.9H125.7V25H130.4V17.1C130.4 14.1 132 12.7 134.3 12.7C136.3 12.7 137.5 13.9 137.5 16.5V25H142.2V15.8C142.2 10.9 139.3 8.7 135.5 8.7ZM158.4 2.8V10.6C157.2 9.3 155.5 8.7 153.5 8.7C149 8.7 145.5 11.9 145.5 17C145.5 22 149 25.3 153.5 25.3C155.7 25.3 157.4 24.6 158.6 23.2V25H163.1V2.8H158.4ZM154.3 21.4C152 21.4 150.2 19.8 150.2 17C150.2 14.2 152 12.5 154.3 12.5C156.6 12.5 158.4 14.2 158.4 17C158.4 19.8 156.6 21.4 154.3 21.4Z" fill="white"/>
								<path d="M21.1 22.2L5.29999 6.8L27 1L21.1 22.2Z" stroke="white" stroke-linejoin="round"/>
								<path d="M16.8 26L1 10.5L22.7 4.8L16.8 26Z" stroke="white" stroke-linejoin="round"/>
							</svg>