<svg width="892" height="792" viewBox="0 0 892 792" fill="none" xmlns="http://www.w3.org/2000/svg">
<path opacity="0.1" d="M467.5 -143C725.7 -143 935 66.3 935 324.5C935 582.7 725.7 792 467.5 792C209.3 792 0 582.7 0 324.5C0 66.3 209.3 -143 467.5 -143Z" fill="white"/>
<path opacity="0.1" d="M516.5 -194C774.7 -194 984 15.3 984 273.5C984 531.7 774.7 741 516.5 741C258.3 741 49 531.7 49 273.5C49 15.3 258.3 -194 516.5 -194Z" fill="white"/>
<path opacity="0.1" d="M549.5 -242C807.7 -242 1017 -32.7 1017 225.5C1017 483.7 807.7 693 549.5 693C291.3 693 82 483.7 82 225.5C82 -32.7 291.3 -242 549.5 -242Z" fill="white"/>
</svg>
